# xmcd
#
# Track frame offsets:
#	150
#	17664
#	34949
#	48652
#	64938
#	80644
#	95802
#	109699
#	121467
#	134152
#
# Disc length: 1991 seconds
# Revision: 0
# Processed by: cddbd v1.5.2PL0 Copyright (c) Steve Scherf et al.
# Submitted via: dBpowerAMP V12.0
#
DISCID=9407c50a
DTITLE=Darin and Brooke Aldridge - Flying
DYEAR=2013
DGENRE=Country
TTITLE0=Maybe Just a Little
TTITLE1=Love Speak to Me
TTITLE2=Laurie Stevens
TTITLE3=Trying to Make Clocks Slow Down
TTITLE4=Higher Than My Heart
TTITLE5=I Gotta Have Butterflies
TTITLE6=Outbound Plane
TTITLE7=To the Moon and Back
TTITLE8=Love Does
TTITLE9=Little Bit of Wonderful
EXTD=
EXTT0=
EXTT1=
EXTT2=
EXTT3=
EXTT4=
EXTT5=
EXTT6=
EXTT7=
EXTT8=
EXTT9=
PLAYORDER=
